<svg width="397" height="209" viewBox="0 0 397 209" fill="none" xmlns="http://www.w3.org/2000/svg">
<g filter="url(#filter0_d_29_2)">
<path d="M63.2992 10.5C64.0326 10.6333 65.6659 13.2 68.1992 18.2C70.7326 23.1333 73.8326 29.5333 77.4992 37.4L80.6992 44.1C82.0992 42.5667 83.3992 40.8 84.5992 38.8C85.7992 36.7333 87.2992 33.9667 89.0992 30.5C91.1659 26.5667 92.5992 24.0333 93.3992 22.9C96.5992 18.0333 100.066 12.8667 103.799 7.4C104.266 6.66666 105.099 6.16666 106.299 5.9C106.499 5.83333 106.833 5.79999 107.299 5.79999C108.899 5.79999 110.666 6.46666 112.599 7.8C114.599 9.13333 115.899 10.5 116.499 11.9C116.633 12.1667 116.699 12.6667 116.699 13.4C116.699 14.0667 116.666 14.5667 116.599 14.9C116.466 15.5 116.299 16.2667 116.099 17.2C115.966 18.0667 115.833 19.1 115.699 20.3C113.566 36.5667 112.033 48.7667 111.099 56.9C110.833 58.7667 110.699 60.8667 110.699 63.2L110.499 66.4C110.433 67.0667 110.399 67.8333 110.399 68.7C110.399 69.5667 110.299 70.1667 110.099 70.5C109.899 70.8333 109.533 71 108.999 71C108.599 71 107.999 70.9 107.199 70.7C105.066 70.2333 103.433 69.4 102.299 68.2C101.166 66.9333 100.533 65.2 100.399 63C100.333 61.8667 100.299 60.1 100.299 57.7C100.299 55.2333 100.366 51.4667 100.499 46.4L100.599 40.9L100.799 33C100.199 33.5333 98.6659 35.6333 96.1992 39.3C93.7992 42.9 91.4326 46.6667 89.0992 50.6C86.7659 54.5333 85.2326 57.5667 84.4992 59.7C83.8326 61.3667 83.1659 62.6 82.4992 63.4C81.8992 64.2 81.1659 64.6 80.2992 64.6C79.4992 64.6 78.4659 64.2333 77.1992 63.5C73.5992 61.3 71.3992 58.2667 70.5992 54.4C69.3326 48.4667 67.7659 42.3 65.8992 35.9C65.5659 34.7 64.8992 33.0667 63.8992 31C62.9659 28.9333 62.3659 27.6333 62.0992 27.1L60.7992 24.5C51.0659 37.4333 44.4659 49.3 40.9992 60.1C40.3326 62.3667 39.6992 64 39.0992 65C38.4992 65.9333 37.7992 66.4 36.9992 66.4C35.7326 66.4 33.9326 65.2667 31.5992 63C29.7992 61.4 28.8992 59.6 28.8992 57.6C28.8992 56.5333 29.0992 55.4667 29.4992 54.4C32.2992 46.1333 36.4659 38.3 41.9992 30.9L45.0992 26.8C49.2992 21.2667 52.4659 16.9333 54.5992 13.8C56.1992 11.4667 58.3326 10.3 60.9992 10.3C61.4659 10.3 62.2326 10.3667 63.2992 10.5ZM187.256 45C186.99 46.6667 186.456 51 185.656 58C185.19 62 184.923 64.0667 184.856 64.2L176.056 62.8L177.856 41.2L176.756 42C176.156 42.5333 175.323 43.3667 174.256 44.5C173.256 45.5667 172.356 46.5333 171.556 47.4C168.956 51 167.056 53.4333 165.856 54.7C162.923 57.7667 160.223 60.3333 157.756 62.4C155.356 64.4 152.49 66.2333 149.156 67.9C147.823 68.5667 146.19 68.9 144.256 68.9C142.59 68.9 140.99 68.6 139.456 68C137.923 67.4 136.623 66.5 135.556 65.3C130.29 59.5667 127.656 52.6333 127.656 44.5C127.656 42.1667 127.856 39.7667 128.256 37.3C128.79 34.1 129.456 30.9667 130.256 27.9C131.056 24.7667 132.156 20.7333 133.556 15.8C134.023 14.4 134.656 12.3 135.456 9.49999C135.79 8.16666 136.29 7.4 136.956 7.19999C137.223 7.06666 137.456 7 137.656 7C138.39 7 139.256 7.3 140.256 7.9C142.456 9.16666 144.023 10.4 144.956 11.6C145.956 12.8 146.456 14.1667 146.456 15.7C146.456 17.5 145.756 19.8667 144.356 22.8C140.223 31.6 138.156 39.7 138.156 47.1C138.156 49.0333 138.223 50.4667 138.356 51.4C138.49 52.9333 139.256 54.3 140.656 55.5C142.056 56.7 143.59 57.3 145.256 57.3C147.056 57.3 148.623 56.6333 149.956 55.3C156.89 48.3667 162.59 41.3333 167.056 34.2C171.523 27.0667 175.023 19.2333 177.556 10.7C177.823 9.7 178.123 8.73333 178.456 7.8L178.656 7.6C182.59 8 185.69 9.53333 187.956 12.2C190.223 14.8 191.223 18.0333 190.956 21.9C189.156 32.5667 187.923 40.2667 187.256 45ZM233.849 58.7C234.183 58.5 234.449 58.1667 234.649 57.7C234.916 57.1667 235.116 56.7667 235.249 56.5C234.649 55.2333 233.883 54.2667 232.949 53.6C232.083 52.8667 230.849 52.1 229.249 51.3C228.316 50.9667 227.383 50.4667 226.449 49.8C225.516 49.1333 224.416 48.5 223.149 47.9C221.883 47.3 221.049 46.9 220.649 46.7C217.983 45.3667 216.016 44.3333 214.749 43.6C212.016 41.8667 209.416 39.7333 206.949 37.2C203.616 33.9333 201.949 30.2 201.949 26C201.949 22.8 202.916 19.3333 204.849 15.6C206.916 11.7333 209.616 8.6 212.949 6.2C216.283 3.79999 220.249 1.9 224.849 0.499998C225.249 0.299996 225.683 0.199996 226.149 0.199996C226.616 0.199996 227.083 0.166663 227.549 0.0999968C228.016 0.033331 228.516 -1.90735e-06 229.049 -1.90735e-06C230.783 -1.90735e-06 231.949 0.633331 232.549 1.9C233.149 3.03333 233.449 4.23333 233.449 5.5C233.449 6.9 233.083 8.26666 232.349 9.6C232.016 10.2 231.449 10.7 230.649 11.1C229.916 11.5 229.149 11.7667 228.349 11.9C225.616 12.2333 223.083 13.0667 220.749 14.4C218.416 15.7333 215.949 17.5 213.349 19.7C212.683 20.2333 212.083 20.9 211.549 21.7C210.083 23.5667 209.349 24.9667 209.349 25.9C209.349 27.1 210.349 28.4 212.349 29.8C214.616 31.4667 217.116 33.1333 219.849 34.8C222.649 36.4 224.349 37.4 224.949 37.8C226.549 38.6667 227.483 39.2 227.749 39.4C228.749 40.0667 229.716 40.6333 230.649 41.1C233.249 42.7 234.549 43.5 234.549 43.5C236.883 45.1 238.683 47.1333 239.949 49.6C241.283 52.0667 241.949 54.6667 241.949 57.4C241.949 61.2667 240.749 64.7 238.349 67.7C236.216 70.5 233.716 72.8667 230.849 74.8C227.983 76.7333 224.316 78.9 219.849 81.3C219.383 81.5667 218.849 81.7 218.249 81.7C216.849 81.7 215.616 81.1 214.549 79.9C213.483 78.7 213.049 77.4 213.249 76C213.383 74.6 213.783 73.4667 214.449 72.6C215.116 71.7333 216.149 70.9333 217.549 70.2C219.616 69.0667 221.616 67.8333 223.549 66.5C225.483 65.1 227.883 63.3 230.749 61.1L233.849 58.7ZM271.749 25.2C272.149 23.6667 272.749 20.7667 273.549 16.5L273.949 14.4L271.549 13.8C269.283 13.2 267.316 12.5667 265.649 11.9C265.183 11.6333 264.749 11.1667 264.349 10.5C263.949 9.83333 263.783 9.26666 263.849 8.8C263.849 8.4 264.116 7.96667 264.649 7.5C265.249 6.96666 265.816 6.63333 266.349 6.5L268.549 6C272.283 5.06667 275.083 4.6 276.949 4.6C277.616 4.6 278.116 4.63333 278.449 4.7C280.716 4.83333 283.249 6.4 286.049 9.4C286.383 9.73333 286.549 10.3333 286.549 11.2C286.549 12.2 286.349 13.4333 285.949 14.9C284.883 18.5 283.216 23.9 280.949 31.1L275.849 47.3C275.449 48.7 274.716 51.9 273.649 56.9L272.849 60.5C273.983 60.5 275.549 60.4333 277.549 60.3C280.083 60.1667 281.949 60.1 283.149 60.1L284.649 60C285.649 60 286.416 60.1667 286.949 60.5C287.483 60.7667 287.916 61.2 288.249 61.8C288.649 62.3333 288.883 62.8667 288.949 63.4V63.5C288.949 63.9667 288.783 64.5 288.449 65.1C288.116 65.6333 287.749 65.9333 287.349 66C286.283 66.3333 285.316 66.6667 284.449 67C275.183 70.1333 268.016 72.3333 262.949 73.6C262.283 73.8 261.616 73.9 260.949 73.9C258.816 73.9 256.883 73.1333 255.149 71.6C253.483 70 252.416 68.0667 251.949 65.8C252.549 65.0667 253.183 64.6333 253.849 64.5C254.583 64.3 255.683 64.2 257.149 64.2C259.016 64.2 260.283 63.8667 260.949 63.2C261.616 62.5333 262.249 61.1333 262.849 59L267.349 42.1C269.083 35.5667 270.549 29.9333 271.749 25.2ZM301.922 42.3C301.855 41.8333 301.822 41.0667 301.822 40C301.822 37.4 302.089 34.8667 302.622 32.4C303.155 29.9333 303.922 27.2333 304.922 24.3C305.922 21.5667 307.822 18.8333 310.622 16.1C313.422 13.3667 316.555 11.1333 320.022 9.4C323.489 7.6 326.622 6.7 329.422 6.7C332.289 6.7 335.089 7.76666 337.822 9.9C340.555 11.9667 342.289 14.3333 343.022 17C343.155 17.8 343.222 18.3333 343.222 18.6C343.222 19.6 342.922 20.3667 342.322 20.9C341.789 21.3667 341.055 21.6 340.122 21.6C339.389 21.6 338.822 21.5667 338.422 21.5C338.222 21.5 337.922 21.3667 337.522 21.1C335.589 20.0333 333.722 19.5 331.922 19.5C328.522 19.5 325.155 21.2667 321.822 24.8C316.155 30.7333 313.322 37.8 313.322 46C313.322 48.9333 313.622 51.7667 314.222 54.5C314.889 57.5667 316.055 59.8333 317.722 61.3C319.455 62.7 321.755 63.4 324.622 63.4C325.622 63.4 326.722 63.3 327.922 63.1C332.122 62.5667 335.989 61.3 339.522 59.3C343.055 57.2333 346.955 54.5 351.222 51.1C352.222 50.3 353.989 48.6333 356.522 46.1L358.522 44C359.389 43.1333 360.122 42.5333 360.722 42.2C361.389 41.8 361.989 41.6 362.522 41.6C363.389 41.6 364.455 42.0333 365.722 42.9C367.122 43.9 367.822 45.1667 367.822 46.7C367.822 47.7667 367.455 48.7667 366.722 49.7C366.455 50.1667 365.722 51.2667 364.522 53C363.322 54.6667 362.155 56.1667 361.022 57.5C359.889 58.8333 358.755 59.9667 357.622 60.9C351.489 66.3 345.089 69.9333 338.422 71.8C335.489 72.6 332.555 73 329.622 73C324.222 73 319.422 71.6333 315.222 68.9C311.089 66.1667 307.855 62.6 305.522 58.2C303.189 53.7333 301.989 49.1 301.922 44.3V42.3ZM12.9742 190.1C12.9742 190.567 12.8409 191.167 12.5742 191.9C12.3076 192.633 12.1076 193.267 11.9742 193.8C9.50755 192.467 7.77422 190.9 6.77422 189.1C5.84089 187.367 5.30755 185.233 5.17422 182.7C4.57422 171.3 6.00755 159.733 9.47422 148L11.4742 141C12.8742 136.067 13.9409 132.333 14.6742 129.8L7.37422 124.4C8.50755 122.533 9.87422 121.2 11.4742 120.4C13.0742 119.6 14.6742 119.033 16.2742 118.7C17.9409 118.3 19.1076 118.033 19.7742 117.9C24.7076 116.633 29.6076 116.033 34.4742 116.1C38.5409 116.167 42.8076 116.633 47.2742 117.5C52.5409 118.5 56.9409 121.733 60.4742 127.2C61.0742 128.133 61.4076 129.133 61.4742 130.2C61.5409 131.8 60.8076 133.533 59.2742 135.4C58.0076 136.933 56.3076 138.467 54.1742 140C46.4409 145.533 36.5409 149.8 24.4742 152.8C22.3409 153.333 20.7409 153.667 19.6742 153.8C17.4742 154.067 16.1742 155.4 15.7742 157.8C15.3742 160.2 15.1076 162.133 14.9742 163.6C14.0409 169.733 13.2409 175.6 12.5742 181.2C12.5076 181.533 12.4742 182.033 12.4742 182.7C12.4742 183.967 12.5742 185.2 12.7742 186.4C12.9076 188 12.9742 189.233 12.9742 190.1ZM20.2742 145.4C22.0076 145.2 25.0742 143.967 29.4742 141.7C33.8742 139.433 38.1409 136.967 42.2742 134.3C46.4742 131.633 49.1076 129.567 50.1742 128.1L48.5742 127.3C45.8409 126.367 42.9742 125.9 39.9742 125.9C38.6409 125.9 37.4742 125.933 36.4742 126C35.5409 126.067 34.7409 126.133 34.0742 126.2L31.9742 126.4C29.5742 126.6 27.6742 127.167 26.2742 128.1C24.9409 128.967 24.0742 130.533 23.6742 132.8C23.6076 133.2 23.3742 133.733 22.9742 134.4C22.6409 135.067 22.4409 135.6 22.3742 136C22.2409 136.667 21.9076 137.667 21.3742 139C20.5076 141 20.0742 142.633 20.0742 143.9C20.0742 144.233 20.1409 144.733 20.2742 145.4ZM79.5195 176.8C81.3195 176.467 85.0529 175.7 90.7195 174.5L98.4195 172.9C99.2862 173.767 100.02 174.533 100.62 175.2C101.22 175.867 101.52 176.433 101.52 176.9C101.52 177.433 101.253 177.967 100.72 178.5C100.186 179.033 99.1195 179.9 97.5195 181.1C97.3195 181.233 97.0862 181.467 96.8195 181.8C96.6195 182.133 96.3862 182.333 96.1195 182.4L93.4195 183.1C91.1529 183.767 89.1195 184.267 87.3195 184.6C85.5862 185 83.8195 185.2 82.0195 185.2C75.6195 185.2 70.3862 183.3 66.3195 179.5C64.7862 178.1 63.5862 176.7 62.7195 175.3C61.9195 173.833 61.5195 172.267 61.5195 170.6C61.5195 169.867 61.5529 169.333 61.6195 169C62.6862 162.4 63.8862 156.8 65.2195 152.2C66.6195 147.133 69.1529 138.533 72.8195 126.4C73.6195 123.533 74.8862 119.233 76.6195 113.5C77.0862 111.967 77.7195 110.9 78.5195 110.3C79.3862 109.7 80.6195 109.467 82.2195 109.6C82.5529 109.6 82.8529 109.633 83.1195 109.7C83.4529 109.767 83.7862 109.8 84.1195 109.8C88.2529 110.133 90.3195 112.133 90.3195 115.8C90.3195 116.733 90.1862 117.7 89.9195 118.7C89.3862 120.833 88.3862 123.7 86.9195 127.3C81.5195 141.033 77.3529 154.267 74.4195 167C74.0195 168.6 73.8195 170.267 73.8195 172C73.8195 175.267 75.2529 176.9 78.1195 176.9C78.7195 176.9 79.1862 176.867 79.5195 176.8ZM163.543 128.4C163.943 131.267 164.343 135.433 164.743 140.9L164.943 146.1C164.943 155.767 166.21 164.4 168.743 172C169.076 173.067 169.243 174.433 169.243 176.1C169.243 177.033 169.176 178.3 169.043 179.9C168.976 180.967 168.576 181.8 167.843 182.4C167.11 183.067 166.176 183.4 165.043 183.4C164.91 183.4 164.543 183.333 163.943 183.2C162.276 182.8 161.01 182.067 160.143 181C159.276 179.867 158.843 178.5 158.843 176.9C158.843 176.367 158.876 175.967 158.943 175.7C158.943 175.3 158.943 174.733 158.943 174C158.943 172.8 158.876 171.7 158.743 170.7C158.21 168.1 157.376 164.633 156.243 160.3C155.843 158.5 155.01 157.6 153.743 157.6C153.276 157.6 152.743 157.7 152.143 157.9C150.076 158.5 148.243 159.067 146.643 159.6C145.11 160.133 143.743 160.567 142.543 160.9L137.743 162.3C135.01 163.1 132.476 163.733 130.143 164.2C127.676 164.733 125.876 166.1 124.743 168.3C123.676 170.3 122.143 173 120.143 176.4C118.876 178.667 117.21 179.8 115.143 179.8C114.143 179.8 113.143 179.567 112.143 179.1C111.21 178.567 110.41 177.9 109.743 177.1C108.743 175.967 108.243 174.867 108.243 173.8C108.243 173.067 108.443 172.3 108.843 171.5L115.743 157.5C123.343 142.033 127.876 132.767 129.343 129.7C133.543 121.567 139.243 115.967 146.443 112.9C147.976 112.167 149.543 111.8 151.143 111.8C153.143 111.8 154.976 112.333 156.643 113.4C158.376 114.4 159.71 115.833 160.643 117.7C161.976 120.433 162.943 124 163.543 128.4ZM131.243 153.7C140.376 152.1 148.143 150.8 154.543 149.8C154.41 143.4 154.21 138.367 153.943 134.7C153.743 130.967 153.276 127.233 152.543 123.5C149.01 123.9 146.343 125.633 144.543 128.7C141.41 133.633 138.41 138.733 135.543 144C135.076 144.867 134.21 146.8 132.943 149.8L131.243 153.7ZM209.516 160.5C209.316 160.367 208.982 160.1 208.516 159.7C208.049 159.3 207.616 159.033 207.216 158.9C199.749 156.167 194.149 150.9 190.416 143.1C188.682 139.5 186.482 133.9 183.816 126.3L182.916 123.8C182.649 122.867 182.516 122.033 182.516 121.3C182.516 120.233 182.716 119.567 183.116 119.3C183.649 118.9 184.549 118.7 185.816 118.7C186.416 118.7 187.182 118.767 188.116 118.9C188.716 118.967 189.449 119.2 190.316 119.6C191.182 119.933 191.849 120.2 192.316 120.4C193.249 120.733 193.916 121.233 194.316 121.9C194.782 122.5 195.116 123.333 195.316 124.4C196.982 133.4 200.016 141.7 204.416 149.3C205.349 150.767 206.682 152.2 208.416 153.6C209.816 154.667 210.916 155.2 211.716 155.2C212.916 155.2 214.116 154.3 215.316 152.5L219.616 146.1C222.216 142.033 225.082 137.767 228.216 133.3C230.616 129.833 233.416 128.1 236.616 128.1C238.682 128.1 240.816 128.8 243.016 130.2C244.216 130.867 244.816 131.833 244.816 133.1C244.816 134.033 244.382 134.833 243.516 135.5C239.516 138.7 235.982 142.3 232.916 146.3C229.849 150.233 226.382 155.267 222.516 161.4L220.916 163.9L217.716 168.9C211.116 179.233 205.616 187.767 201.216 194.5C201.016 194.767 200.616 195.333 200.016 196.2C199.482 197.067 198.882 197.733 198.216 198.2C197.549 198.733 196.782 199 195.916 199C194.249 199.6 193.016 199.933 192.216 200C191.416 200.067 190.816 200.2 190.416 200.4L189.716 199.9L209.516 160.5ZM276.381 143.8L279.981 143.3C282.581 142.9 284.348 142.667 285.281 142.6L287.681 142.4C288.481 142.333 289.481 142.267 290.681 142.2C291.881 142.133 293.248 142.1 294.781 142.1C296.248 142.1 297.315 142.133 297.981 142.2C300.315 142.4 302.015 143.167 303.081 144.5C304.215 145.833 304.881 147.833 305.081 150.5C304.815 150.5 304.415 150.467 303.881 150.4C303.348 150.333 302.915 150.267 302.581 150.2C300.715 149.867 299.015 149.7 297.481 149.7C295.681 149.7 293.948 149.933 292.281 150.4C288.015 151.733 282.548 153.133 275.881 154.6C274.615 154.933 273.615 155.467 272.881 156.2C272.215 156.867 271.781 157.833 271.581 159.1C271.181 161.633 270.681 164.167 270.081 166.7C269.615 169.033 269.248 170.967 268.981 172.5C268.915 173.033 268.881 173.733 268.881 174.6C268.881 175.4 268.881 175.967 268.881 176.3C269.948 176.5 271.048 176.6 272.181 176.6C274.381 176.6 277.081 176.167 280.281 175.3C286.148 173.9 292.048 172.4 297.981 170.8L308.981 168C312.448 167.133 315.181 166.367 317.181 165.7C321.515 164.5 324.648 163.667 326.581 163.2C327.381 163.067 327.981 163 328.381 163C330.048 163 331.148 163.667 331.681 165C331.881 165.467 331.981 165.933 331.981 166.4C331.981 167.2 331.715 167.967 331.181 168.7C330.648 169.433 329.915 170.033 328.981 170.5C327.715 171.033 325.981 171.6 323.781 172.2C317.381 174.067 311.715 175.833 306.781 177.5C297.181 180.567 290.048 182.733 285.381 184C283.515 184.533 280.715 185 276.981 185.4L273.281 185.9C271.015 186.167 268.981 185.4 267.181 183.6L265.381 181.8C263.181 179.733 261.481 177.933 260.281 176.4C259.415 175.267 259.048 173.7 259.181 171.7C259.381 169.367 259.815 165.8 260.481 161L260.881 157.8L261.181 154.8C259.181 154.2 257.615 153.467 256.481 152.6C255.415 151.667 254.848 150.2 254.781 148.2C256.915 147.933 258.515 147.8 259.581 147.8C260.781 147.733 261.748 147.433 262.481 146.9C263.215 146.367 263.781 145.5 264.181 144.3C264.915 141.9 266.148 138.367 267.881 133.7C268.415 131.967 269.081 130.033 269.881 127.9C270.215 126.833 270.448 125.5 270.581 123.9C270.581 122.7 270.848 121.767 271.381 121.1C271.981 120.367 272.915 119.8 274.181 119.4C280.248 117.533 288.148 116.1 297.881 115.1C301.081 114.767 304.248 114.667 307.381 114.8C311.781 114.8 315.048 116.467 317.181 119.8C317.781 120.6 318.081 121.667 318.081 123C318.081 123.6 318.015 124.033 317.881 124.3C317.481 125.233 316.881 126.033 316.081 126.7C315.348 127.3 314.415 127.6 313.281 127.6L309.381 127.7C307.515 127.833 306.148 127.9 305.281 127.9C303.415 127.9 302.148 127.567 301.481 126.9C300.548 125.967 299.381 125.5 297.981 125.5C297.581 125.5 296.915 125.567 295.981 125.7L286.081 128L282.081 129L276.381 143.8ZM391.98 172.4C392.18 173.067 392.28 173.7 392.28 174.3C392.28 175.367 391.947 176.233 391.28 176.9C390.68 177.5 389.847 177.8 388.78 177.8C388.38 177.8 388.047 177.767 387.78 177.7C384.78 177.033 382.414 176.3 380.68 175.5C379.347 174.9 376.88 173.4 373.28 171C370.547 169.2 368.28 167.8 366.48 166.8C364.147 165.533 361.647 164.667 358.98 164.2C357.78 164 354.947 163.667 350.48 163.2C348.48 163.067 347.014 162.933 346.08 162.8L344.28 177.6L344.38 179.2C344.38 181.6 344.08 183.2 343.48 184C342.947 184.8 341.814 185.2 340.08 185.2C338.28 185.2 336.714 184.633 335.38 183.5C334.047 182.367 333.38 180.967 333.38 179.3C333.38 174.233 333.647 169.733 334.18 165.8C336.047 153.733 340.347 141.2 347.08 128.2C350.88 120.933 356.714 115.333 364.58 111.4C367.114 110.133 369.68 109.5 372.28 109.5C374.947 109.5 377.414 110.2 379.68 111.6C382.014 112.933 383.947 114.9 385.48 117.5C386.88 119.833 387.58 122.1 387.58 124.3C387.58 127.367 386.38 130.467 383.98 133.6C381.114 137.333 377.047 142.633 371.78 149.5L365.28 157.9C365.347 157.9 365.414 158 365.48 158.2C365.614 158.333 365.747 158.467 365.88 158.6L368.08 159.8C373.614 162.8 377.68 165.167 380.28 166.9C382.814 168.433 385.514 169.2 388.38 169.2C389.247 169.2 389.914 169.167 390.38 169.1C390.58 169.433 390.847 169.933 391.18 170.6C391.514 171.267 391.78 171.867 391.98 172.4ZM354.98 152.6C357.714 149.533 360.447 146.333 363.18 143C365.98 139.667 368.447 136.533 370.58 133.6C371.447 132.4 372.18 131.133 372.78 129.8C373.38 128.4 373.914 127 374.38 125.6C374.914 124.2 375.28 123.2 375.48 122.6C375.547 122.4 375.58 122.067 375.58 121.6C375.58 121.067 375.514 120.4 375.38 119.6C375.247 118.8 375.147 118.233 375.08 117.9C370.214 119.367 365.78 122.367 361.78 126.9C357.78 131.433 354.614 136.467 352.28 142C350.014 147.533 348.847 152.3 348.78 156.3C350.114 156.433 351.147 156.2 351.88 155.6C352.68 155 353.714 154 354.98 152.6Z" fill="#212121" fill-opacity="0.68" shape-rendering="crispEdges"/>
</g>
<defs>
<filter id="filter0_d_29_2" x="0.27422" y="0" width="396.006" height="208.4" filterUnits="userSpaceOnUse" color-interpolation-filters="sRGB">
<feFlood flood-opacity="0" result="BackgroundImageFix"/>
<feColorMatrix in="SourceAlpha" type="matrix" values="0 0 0 0 0 0 0 0 0 0 0 0 0 0 0 0 0 0 127 0" result="hardAlpha"/>
<feOffset dy="4"/>
<feGaussianBlur stdDeviation="2"/>
<feComposite in2="hardAlpha" operator="out"/>
<feColorMatrix type="matrix" values="0 0 0 0 0 0 0 0 0 0 0 0 0 0 0 0 0 0 0.25 0"/>
<feBlend mode="normal" in2="BackgroundImageFix" result="effect1_dropShadow_29_2"/>
<feBlend mode="normal" in="SourceGraphic" in2="effect1_dropShadow_29_2" result="shape"/>
</filter>
</defs>
</svg>
